# xmcd CD database file
#
# Track frame offsets:
#	150
#	21097
#	38927
#	59426
#	77810
#	98347
#	113511
#	128685
#	148882
#
# Disc length: 2244 seconds
#
# Revision: 1
# Processed by: cddbd v1.5.1PL2 Copyright (c) Steve Scherf et al.
# Submitted via: CDex 1.51
#
DISCID=6e08c209
DTITLE=Ricochets - Isolation
DYEAR=2005
DGENRE=Blues
TTITLE0=Cold Outside
TTITLE1=Little Bit of More
TTITLE2=Isolation
TTITLE3=No Good
TTITLE4=Written on My Grave
TTITLE5=I Know I'll Be Forgotten
TTITLE6=I'm Gonna Eat Myself
TTITLE7=Laidback Lovers
TTITLE8=Blues in Bb-Minor
EXTD=YEAR: 2005
EXTT0=
EXTT1=
EXTT2=
EXTT3=
EXTT4=
EXTT5=
EXTT6=
EXTT7=
EXTT8=
PLAYORDER=
